<svg xmlns="http://www.w3.org/2000/svg" width="512.6" height="133.43" viewBox="0 0 512.6 133.43"><title>td_securities</title><path d="M51.11,170.71V37.29h512.6V170.71Zm136.65-21.12V53.47H81.12v96.12Zm73.66-80.18A47.62,47.62,0,0,0,256,68.35c-7.46-.57-15-1.22-22.15,1.64-5.49,2.19-8,6.12-7.92,11.94.07,5.62,2.48,9.09,8.12,11.19,2.46.91,5.16,1.19,7.64,2.06,2.16.76,5.13.35,6.11,3.77-7.2,4.44-14.34.62-21.43-.34v10.82a50.48,50.48,0,0,0,6,1.26c8.09.68,16.26,1.87,24.06-1.62,5.67-2.53,8-6.69,7.66-13.18-.28-5.62-3.7-8.67-8.66-10.27-2.5-.81-5.21-1-7.69-1.88-2-.69-4.85-.23-5.45-3.64,6.3-4,12.78-.23,19.15-.27Zm90.82,10H337c0,7.31-.06,14.28,0,21.25s3.45,10.32,10.34,10.53c4,.11,7.53-.78,10.07-4.24,1.15,1.24,0,3,1.09,3.44h14V79.33H357.25c0,3.68.08,7.13,0,10.58-.11,3.62.5,7.29-.52,10.81a3.58,3.58,0,0,1-3.66-.17c-1.4-3.14-.69-6.67-.79-10.09C352.16,86.84,352.24,83.21,352.24,79.43ZM301.42,98.86c1.71-13.68-6.2-21.88-19.07-20.34-1.15.14-2.31.26-3.46.43-7.58,1.13-12.39,5.89-13,12.84-.83,9.68,2.37,15.73,10.16,18.23,7.64,2.46,15.35,1.51,23-.27v-8c-13.33,2.23-14.91,2-18-2.92Zm206.74-.07c2-13.21-5.84-21.67-18.39-20.35q-2,.21-4,.51c-7.82,1.15-12.29,5.73-13.07,13.34-.9,9,2.59,15.32,10.25,17.74s15.32,1.55,23.08-.35c.11-2.89.49-5.46-.27-8-6.19.81-12.46,3.7-17.56-1.34l.16-1.54ZM451.69,87.94c.19-2.79.54-5.69-.31-8.9H445V67.62a93.73,93.73,0,0,0-15.83,4.83v6.44l-4.8.37v9.19l4.71.46c.64,5-.27,9.86.89,14.58,1.06,4.32,3.6,7,8.12,7.55s9.21.45,13.57-1.55v-8.43c-1.86-.44-3.58.38-5.69-.84-2-3.44-.81-7.46-.73-11.29C447.53,88.31,449.62,89.24,451.69,87.94Zm58.76,21.56a37.58,37.58,0,0,0,4.22,1.1c6.94,1,13.9,1.64,20.51-1.53,4.39-2.1,6.35-5.64,5.81-10.53-.51-4.62-3.89-6.32-7.69-7.4A53.7,53.7,0,0,0,526.44,90c-1.17-.18-2.34-.29-2.21-2.27,4.74-2,9.54.13,14.38.38V79.83c-7.6-1.72-15-2.27-22.26.25-5.8,2-8.37,7.54-6.14,12.76,1.88,4.41,6.12,5.24,10.17,6.16,2.29.52,4.86.25,6.58,2.53-2.64,2.31-5.59,1.59-8.29,1.31s-5.34-1.27-8.22-2ZM333.29,79.59c-6-1.12-11.57-1.71-17.22-.65-5.91,1.11-10.83,3.67-12.45,9.89s-1.34,12.62,3.57,17.67c5.26,5.41,19.4,6.66,26.34,2.64v-8.52c-4.62,1.11-9.16,3.14-12.72-1.26a6.69,6.69,0,0,1-.8-7.91c3.31-5.83,8.59-2.8,13.28-2.58ZM393,110.65v-8.07c0-8.85,2.32-11.32,10.74-11.6V78.84c-5.54-.51-5.69-.44-11.57,4.9l-.35-4.41h-14v31.32Zm76.3-31.25H454.39v31.18h14.89Zm-62.06-.22v31.41h14.49V79.18Zm47-13.63V76.08c5.23,0,10.26.43,15.18-.25V65.55ZM407,75.93h14.71V65.61H407Z" transform="translate(-51.11 -37.29)" fill="#010101"/><path d="M187.76,149.59H81.12V53.47H187.76ZM126.5,128c11.23,0,21.9.44,32.51-.15,7.67-.43,12.77-5.11,15-12.65a54.17,54.17,0,0,0,1.86-19.77c-1.33-16.37-7.93-22.33-24.38-22.34-17.49,0-35,0-52.49,0-2.12,0-4.31-.48-6.7.61-.12,2.17-.45,4.4.26,6.78,6,1,12-.44,18.44,1V128c4,.25,7.46.8,11.42-.49V80.87c10.09,0,19.57-.09,29,0,5.68.07,9,2.78,10.34,8.28a49,49,0,0,1-.06,22.76c-1,4.4-3.42,8.29-8.38,8.84a60.43,60.43,0,0,1-15.14-.23V84.35H126.5Z" transform="translate(-51.11 -37.29)" fill="#03a141"/><path d="M261.42,69.41V79.83c-6.37,0-12.85-3.7-19.15.27.6,3.41,3.49,3,5.45,3.64,2.48.87,5.19,1.07,7.69,1.88,5,1.6,8.38,4.65,8.66,10.27.33,6.49-2,10.65-7.66,13.18-7.8,3.49-16,2.3-24.06,1.62a50.48,50.48,0,0,1-6-1.26V98.61c7.09,1,14.23,4.78,21.43.34-1-3.42-4-3-6.11-3.77-2.48-.87-5.18-1.15-7.64-2.06-5.64-2.1-8.05-5.57-8.12-11.19-.07-5.82,2.43-9.75,7.92-11.94,7.18-2.86,14.69-2.21,22.15-1.64A47.62,47.62,0,0,1,261.42,69.41Z" transform="translate(-51.11 -37.29)" fill="#fefefe"/><path d="M352.24,79.43c0,3.78-.08,7.41,0,11,.1,3.42-.61,7,.79,10.09a3.58,3.58,0,0,0,3.66.17c1-3.52.41-7.19.52-10.81.1-3.45,0-6.9,0-10.58h15.26v31.08h-14c-1-.42.06-2.2-1.09-3.44-2.54,3.46-6.09,4.35-10.07,4.24-6.89-.21-10.27-3.55-10.34-10.53s0-13.94,0-21.25Z" transform="translate(-51.11 -37.29)" fill="#fefefe"/><path d="M301.42,98.86H281.05c3.13,4.92,4.71,5.15,18,2.92v8c-7.68,1.78-15.39,2.73-23,.27-7.79-2.5-11-8.55-10.16-18.23.6-7,5.41-11.71,13-12.84,1.15-.17,2.31-.29,3.46-.43C295.22,77,303.13,85.18,301.42,98.86Zm-13.49-7.09c.27-2.94-.37-4.92-3.36-5.87-2.7.89-4,2.65-3.37,5.87Z" transform="translate(-51.11 -37.29)" fill="#fefefe"/><path d="M508.16,98.79H488.4l-.16,1.54c5.1,5,11.37,2.15,17.56,1.34.76,2.55.38,5.12.27,8-7.76,1.9-15.44,2.77-23.08.35s-11.15-8.77-10.25-17.74C473.52,84.68,478,80.1,485.81,79q2-.3,4-.51C502.32,77.12,510.14,85.58,508.16,98.79Zm-16.4-12.88c-3.33.92-4.15,2.9-3.6,5.83h6.63C495.33,89,494.5,87.14,491.76,85.91Z" transform="translate(-51.11 -37.29)" fill="#fefefe"/><path d="M451.69,87.94c-2.07,1.3-4.16.37-6.47,1-.08,3.83-1.23,7.85.73,11.29,2.11,1.22,3.83.4,5.69.84v8.43c-4.36,2-8.94,2.07-13.57,1.55s-7.06-3.23-8.12-7.55c-1.16-4.72-.25-9.58-.89-14.58l-4.71-.46V79.26l4.8-.37V72.45A93.73,93.73,0,0,1,445,67.62V79h6.4C452.23,82.25,451.88,85.15,451.69,87.94Z" transform="translate(-51.11 -37.29)" fill="#fefefe"/><path d="M510.45,109.5v-8.65c2.88.72,5.51,1.7,8.22,2s5.65,1,8.29-1.31c-1.72-2.28-4.29-2-6.58-2.53-4-.92-8.29-1.75-10.17-6.16-2.23-5.22.34-10.74,6.14-12.76,7.27-2.52,14.66-2,22.26-.25v8.24c-4.84-.25-9.64-2.43-14.38-.38-.13,2,1,2.09,2.21,2.27a53.7,53.7,0,0,1,6.86,1.18c3.8,1.08,7.18,2.78,7.69,7.4.54,4.89-1.42,8.43-5.81,10.53-6.61,3.17-13.57,2.5-20.51,1.53A37.58,37.58,0,0,1,510.45,109.5Z" transform="translate(-51.11 -37.29)" fill="#fefefe"/><path d="M333.29,79.59v9.28c-4.69-.22-10-3.25-13.28,2.58a6.69,6.69,0,0,0,.8,7.91c3.56,4.4,8.1,2.37,12.72,1.26v8.52c-6.94,4-21.08,2.77-26.34-2.64-4.91-5-5.23-11.32-3.57-17.67s6.54-8.78,12.45-9.89C321.72,77.88,327.26,78.47,333.29,79.59Z" transform="translate(-51.11 -37.29)" fill="#fefefe"/><path d="M393,110.65H377.77V79.33h14l.35,4.41c5.88-5.34,6-5.41,11.57-4.9V91c-8.42.28-10.72,2.75-10.74,11.6Z" transform="translate(-51.11 -37.29)" fill="#fefefe"/><path d="M469.28,79.4v31.18H454.39V79.4Z" transform="translate(-51.11 -37.29)" fill="#fefefe"/><path d="M407.22,79.18h14.49v31.41H407.22Z" transform="translate(-51.11 -37.29)" fill="#fefefe"/><path d="M454.26,65.55h15.18V75.83c-4.92.68-9.95.28-15.18.25Z" transform="translate(-51.11 -37.29)" fill="#fefefe"/><path d="M407,75.93V65.61h14.71V75.93Z" transform="translate(-51.11 -37.29)" fill="#fefefe"/><path d="M126.5,128V84.35h11.71v36.2a60.43,60.43,0,0,0,15.14.23c5-.55,7.34-4.44,8.38-8.84a49,49,0,0,0,.06-22.76c-1.3-5.5-4.66-8.21-10.34-8.28-9.48-.12-19,0-29,0v46.59c-4,1.29-7.37.74-11.42.49V81.47c-6.41-1.43-12.42,0-18.44-1-.71-2.38-.38-4.61-.26-6.78,2.39-1.09,4.58-.61,6.7-.61,17.5,0,35,0,52.49,0,16.45,0,23.05,6,24.38,22.34A54.17,54.17,0,0,1,174,115.17c-2.21,7.54-7.31,12.22-15,12.65C148.4,128.41,137.73,128,126.5,128Z" transform="translate(-51.11 -37.29)" fill="#010101"/><path d="M287.93,91.77H281.2c-.62-3.22.67-5,3.37-5.87C287.56,86.85,288.2,88.83,287.93,91.77Z" transform="translate(-51.11 -37.29)" fill="#010101"/><path d="M491.76,85.91c2.74,1.23,3.57,3.09,3,5.83h-6.63C487.61,88.81,488.43,86.83,491.76,85.91Z" transform="translate(-51.11 -37.29)" fill="#010101"/></svg>