<svg id="Layer_1" data-name="Layer 1" xmlns="http://www.w3.org/2000/svg" xmlns:xlink="http://www.w3.org/1999/xlink" viewBox="0 0 171 118">
  <defs>
    <clipPath id="clip-path">
      <rect x="150.58" y="7.01" width="15.42" height="17.58" style="fill: none"/>
    </clipPath>
    <clipPath id="clip-path-2">
      <rect x="150" y="7" width="19" height="23" style="fill: none"/>
    </clipPath>
    <clipPath id="clip-path-3">
      <path d="M165.71,7,150.58,22s17.88,11.73,15.13-15" style="fill: none;clip-rule: evenodd"/>
    </clipPath>
    <clipPath id="clip-path-4">
      <rect x="150" y="7" width="16" height="18" style="fill: none"/>
    </clipPath>
    <clipPath id="clip-path-5">
      <path d="M132.28,40,147,24.62s-17.39-12-14.72,15.38" style="fill: none;clip-rule: evenodd"/>
    </clipPath>
    <clipPath id="clip-path-6">
      <path d="M165.81,39.61l-14.93-15s-11.66,17.68,14.93,15" style="fill: none;clip-rule: evenodd"/>
    </clipPath>
    <clipPath id="clip-path-7">
      <path d="M133.11,6.88l14.93,15s11.65-17.67-14.93-15" style="fill: none;clip-rule: evenodd"/>
    </clipPath>
    <clipPath id="clip-path-8">
      <path d="M13.72,103a3.45,3.45,0,0,0,2-3.17c0-2.33-1.91-3.79-5-3.79H7v15h4.55C15,111,17,109.42,17,106.73A3.87,3.87,0,0,0,13.72,103ZM8.45,97.29h2.32c1.61,0,3.5.43,3.5,2.49,0,1.85-1.68,2.69-3.33,2.69H8.45Zm3.1,12.42H8.45v-5.93h2.94c1.52,0,4.14.63,4.14,3C15.52,109.42,12.75,109.71,11.55,109.71Z" style="fill: none;clip-rule: evenodd"/>
    </clipPath>
    <clipPath id="clip-path-9">
      <path d="M69.74,96H68.56v6.51H60.42V96H59v15h1.42v-7.18h8.14V111H70V96h-.26" style="fill: none;clip-rule: evenodd"/>
    </clipPath>
    <clipPath id="clip-path-10">
      <path d="M85.31,96H77v15h9v-1.29H78.52v-6h6.37v-1.3H78.52V97.29h7.07V96h-.28" style="fill: none;clip-rule: evenodd"/>
    </clipPath>
    <clipPath id="clip-path-11">
      <path d="M95.81,104.66H96c3.27,0,5.56-1.81,5.56-4.39S99.3,96,96.2,96H92v15h1.54v-6.54c.84.84,6.45,6.54,6.45,6.54h2S96.51,105.39,95.81,104.66Zm-2.27-7.36H96.2c1.72,0,3.75.78,3.75,3s-2.06,3.1-4,3.1H93.54Z" style="fill: none;clip-rule: evenodd"/>
    </clipPath>
    <clipPath id="clip-path-12">
      <path d="M112.45,96h-.87L106,112h1.49l2-5.84h5l2,5.84H118Zm-2.5,8.8c.19-.57,1.69-5,2-6,.37,1.06,1.87,5.45,2.05,6Z" style="fill: none;clip-rule: evenodd"/>
    </clipPath>
    <clipPath id="clip-path-13">
      <rect x="120.67" y="96.12" width="27.06" height="15.75" style="fill: none"/>
    </clipPath>
    <clipPath id="clip-path-14">
      <rect x="120" y="96" width="28" height="16" style="fill: none"/>
    </clipPath>
    <clipPath id="clip-path-15">
      <path d="M129.48,96.36h-8.82v1.32h3.83v14.06h1.43V97.69h3.81V96.36h-.26" style="fill: none;clip-rule: evenodd"/>
    </clipPath>
    <clipPath id="clip-path-17">
      <path d="M140.09,96.12a7.94,7.94,0,1,0,7.64,7.92A7.71,7.71,0,0,0,140.09,96.12Zm0,14.5a6.58,6.58,0,0,1,0-13.14c3.52,0,6.15,2.83,6.15,6.57S143.6,110.63,140.09,110.63Z" style="fill: none;clip-rule: evenodd"/>
    </clipPath>
    <clipPath id="clip-path-19">
      <path d="M163.75,96h-1.16v12.48a2.27,2.27,0,0,0,0,.23L153.5,96H152v15h1.41V98.47s0-.16,0-.24c.88,1.24,9.17,12.77,9.17,12.77H164V96h-.25" style="fill: none;clip-rule: evenodd"/>
    </clipPath>
    <clipPath id="clip-path-20">
      <polyline points="10.41 10.07 10.41 21.81 23.08 21.81 23.08 24.83 10.41 24.83 10.41 40 7 40 7 7 25 7 25 10.07 10.41 10.07" style="fill: none;clip-rule: evenodd"/>
    </clipPath>
    <clipPath id="clip-path-21">
      <path d="M91.56,39.44V34.35A12.67,12.67,0,0,1,80.87,40C74.32,40,70,35.2,70,28.41V7h3.51V28.41c0,5.14,3,8.68,7.83,8.68,6.13,0,9-5.13,10.23-7.14V7H95V39.44H91.56" style="fill: none;clip-rule: evenodd"/>
    </clipPath>
    <clipPath id="clip-path-22">
      <path d="M124.63,40c-2.88,0-4-1.43-5.28-3.2l-7.79-11h-4V39.44H104V7h7.93c7.24,0,11.49,3.65,11.49,9.36,0,5.14-3.83,8.1-8,9.08l7.08,9.82c1,1.31,1.85,2.06,2.87,2.06a3,3,0,0,0,2.28-1.08L129,37.49A5,5,0,0,1,124.63,40ZM111.56,10h-4V23.1h3.77c4,0,8.46-1.66,8.46-6.79C119.78,12.08,117,10,111.56,10Z" style="fill: none;clip-rule: evenodd"/>
    </clipPath>
    <clipPath id="clip-path-23">
      <path d="M47,41c-10.32,0-18-7.86-18-17.5S36.68,6,47,6s18,7.85,18,17.5S57.31,41,47,41ZM47,9A14.28,14.28,0,0,0,32.57,23.5a14.42,14.42,0,1,0,28.84,0A14.27,14.27,0,0,0,47,9Z" style="fill: none;clip-rule: evenodd"/>
    </clipPath>
    <clipPath id="clip-path-24">
      <path d="M15.26,67.71H10.4V82H7V49h8.15C22,49,26,52.61,26,58.29,26,64.86,20.33,67.71,15.26,67.71ZM14.91,52H10.4v12.9h4.27c3.7,0,7.8-1.68,7.8-6.68C22.48,54.1,19.88,52,14.91,52Z" style="fill: none;clip-rule: evenodd"/>
    </clipPath>
    <clipPath id="clip-path-25">
      <path d="M47,83c-10.32,0-18-7.85-18-17.5S36.68,48,47,48s18,7.85,18,17.5S57.32,83,47,83Zm0-32A14.48,14.48,0,1,0,61.42,65.5,14.28,14.28,0,0,0,47,51Z" style="fill: none;clip-rule: evenodd"/>
    </clipPath>
    <clipPath id="clip-path-26">
      <rect x="72" y="49" width="3" height="33" style="fill: none"/>
    </clipPath>
    <clipPath id="clip-path-27">
      <polyline points="109.58 82 109.58 75.15 89.42 54.98 89.42 82 86 82 86 49 88.08 49 109.58 70.49 109.58 49 113 49 113 82 109.58 82" style="fill: none;clip-rule: evenodd"/>
    </clipPath>
    <clipPath id="clip-path-28">
      <polyline points="133.23 52.02 133.23 82 129.76 82 129.76 52.02 118 52.02 118 49 145 49 145 52.02 133.23 52.02" style="fill: none;clip-rule: evenodd"/>
    </clipPath>
    <clipPath id="clip-path-29">
      <path d="M154.79,83A18.6,18.6,0,0,1,146,80.61v-3.8c1.44.88,5.35,3.09,8.79,3.09,3.8,0,6.77-2,6.77-5.48,0-2.69-2.7-4.85-4.71-6.19l-5-3.33c-2.47-1.63-5.46-4.08-5.46-8.28,0-5.66,4.09-8.63,9.24-8.63a16,16,0,0,1,7.46,1.92v3.5A15.52,15.52,0,0,0,155.65,51c-3.56,0-5.91,2.21-5.91,5.31,0,2.74,2.29,4.43,4.52,5.95L159,65.5c2.41,1.63,6,4.2,6,8.81,0,5.37-4.31,8.69-10.21,8.69" style="fill: none;clip-rule: evenodd"/>
    </clipPath>
    <clipPath id="clip-path-30">
      <rect x="20" y="96" width="33" height="16" style="fill: none"/>
    </clipPath>
    <clipPath id="clip-path-31">
      <path d="M32,96.36H30.8l-4.54,6.73c-.4-.55-4.58-6.73-4.58-6.73H20s5.37,8,5.47,8.1v7.29h1.41v-7.26c.08-.14,5.53-8.12,5.53-8.12H32" style="fill: none;clip-rule: evenodd"/>
    </clipPath>
    <clipPath id="clip-path-33">
      <path d="M44.07,99.94c0,2.49,1.87,3.49,3.54,4.38s3.25,1.74,3.25,3.67a2.72,2.72,0,0,1-2.9,2.63,4.63,4.63,0,0,1-3.11-1.27l-.19-.17-.91,1,.18.17A5.94,5.94,0,0,0,48,112a4.2,4.2,0,0,0,4.34-4.05c0-2.74-2.05-3.83-3.69-4.71l-.13-.07c-1.61-.85-3-1.57-3-3.22A2.36,2.36,0,0,1,48,97.49a3.25,3.25,0,0,1,2.84,1.26l.16.19L52,98l-.17-.19A4.72,4.72,0,0,0,48,96.12a3.77,3.77,0,0,0-3.89,3.82" style="fill: none;clip-rule: evenodd"/>
    </clipPath>
  </defs>
  <title>four-points</title>
  <g style="clip-path: url(#clip-path)">
    <g style="isolation: isolate">
      <g style="clip-path: url(#clip-path-2)">
        <g style="clip-path: url(#clip-path-3)">
          <g style="clip-path: url(#clip-path-4)">
            <rect x="145.58" y="2.01" width="25.42" height="27.58" style="fill: #9fd6db"/>
          </g>
        </g>
      </g>
    </g>
  </g>
  <g style="clip-path: url(#clip-path-5)">
    <rect x="127" y="17" width="25" height="28" style="fill: #e0e276"/>
  </g>
  <g style="clip-path: url(#clip-path-6)">
    <rect x="143.33" y="19.64" width="27.47" height="25.25" style="fill: #3d8cbf"/>
  </g>
  <g style="clip-path: url(#clip-path-7)">
    <rect x="128.11" y="1.6" width="27.48" height="25.24" style="fill: #d0232b"/>
  </g>
  <g style="clip-path: url(#clip-path-8)">
    <rect x="2" y="91" width="20" height="25" style="fill: #fffffe"/>
  </g>
  <g style="clip-path: url(#clip-path-9)">
    <rect x="54" y="91" width="21" height="25" style="fill: #fffffe"/>
  </g>
  <g style="clip-path: url(#clip-path-10)">
    <rect x="72" y="91" width="19" height="25" style="fill: #fffffe"/>
  </g>
  <g style="clip-path: url(#clip-path-11)">
    <rect x="87" y="91" width="20" height="25" style="fill: #fffffe"/>
  </g>
  <g style="clip-path: url(#clip-path-12)">
    <rect x="101" y="91" width="22" height="26" style="fill: #fffffe"/>
  </g>
  <g style="clip-path: url(#clip-path-13)">
    <g style="isolation: isolate">
      <g style="clip-path: url(#clip-path-14)">
        <g style="clip-path: url(#clip-path-15)">
          <g style="clip-path: url(#clip-path-14)">
            <rect x="115.67" y="91.36" width="19.07" height="25.39" style="fill: #fffffe"/>
          </g>
        </g>
        <g style="clip-path: url(#clip-path-17)">
          <g style="clip-path: url(#clip-path-14)">
            <rect x="127.44" y="91.12" width="25.29" height="25.88" style="fill: #fffffe"/>
          </g>
        </g>
      </g>
    </g>
  </g>
  <g style="clip-path: url(#clip-path-19)">
    <rect x="147" y="91" width="22" height="25" style="fill: #fffffe"/>
  </g>
  <g style="clip-path: url(#clip-path-20)">
    <rect x="2" y="2" width="28" height="43" style="fill: #fffffe"/>
  </g>
  <g style="clip-path: url(#clip-path-21)">
    <rect x="65" y="2" width="35" height="43" style="fill: #fffffe"/>
  </g>
  <g style="clip-path: url(#clip-path-22)">
    <rect x="99" y="2" width="35" height="43" style="fill: #fffffe"/>
  </g>
  <g style="clip-path: url(#clip-path-23)">
    <rect x="24" y="1" width="46" height="45" style="fill: #fffffe"/>
  </g>
  <g style="clip-path: url(#clip-path-24)">
    <rect x="2" y="44" width="29" height="43" style="fill: #fffffe"/>
  </g>
  <g style="clip-path: url(#clip-path-25)">
    <rect x="24" y="43" width="46" height="45" style="fill: #fffffe"/>
  </g>
  <g style="clip-path: url(#clip-path-26)">
    <rect x="67" y="44" width="13" height="43" style="fill: #fffffe"/>
  </g>
  <g style="clip-path: url(#clip-path-27)">
    <rect x="81" y="44" width="37" height="43" style="fill: #fffffe"/>
  </g>
  <g style="clip-path: url(#clip-path-28)">
    <rect x="113" y="44" width="37" height="43" style="fill: #fffffe"/>
  </g>
  <g style="clip-path: url(#clip-path-29)">
    <rect x="141" y="43" width="29" height="45" style="fill: #fffffe"/>
  </g>
  <g style="isolation: isolate">
    <g style="clip-path: url(#clip-path-30)">
      <g style="clip-path: url(#clip-path-31)">
        <g style="clip-path: url(#clip-path-30)">
          <rect x="15.04" y="91.36" width="22.4" height="25.39" style="fill: #fffffe"/>
        </g>
      </g>
      <g style="clip-path: url(#clip-path-33)">
        <g style="clip-path: url(#clip-path-30)">
          <rect x="38.76" y="91.12" width="18.54" height="25.88" style="fill: #fffffe"/>
        </g>
      </g>
    </g>
  </g>
</svg>
