<svg xmlns="http://www.w3.org/2000/svg" width="232.32" height="88.8" viewBox="0 0 232.32 88.8"><title>Orbital-Logo-RGB</title><path d="M190.24,406.48c2.43-7.53,8.26-12.17,14.33-16.48,9.92-7.06,20.87-12.2,32.12-16.72a309.12,309.12,0,0,1,58.36-16.75,271.2,271.2,0,0,1,27.65-3.74c2-.17,4-.23,6-.35a4.05,4.05,0,0,0,.76-.2h13.68c2,.16,4,.29,5.95.49,6,.61,12,1.47,17.48,4.15a19.78,19.78,0,0,1,5.13,3.62c2.66,2.6,3,5.87,1.79,9.31a22.62,22.62,0,0,1-6.1,8.6l0,0a8.27,8.27,0,0,1,.41-1.08c2.31-4.43,1.33-8.33-2.84-11.12a27.11,27.11,0,0,0-9.45-3.64A78.61,78.61,0,0,0,341.24,361a175,175,0,0,0-30.69,2,280,280,0,0,0-70.66,19.49,121.28,121.28,0,0,0-25.1,13.88,37,37,0,0,0-7.72,7.32,18.91,18.91,0,0,0-2.23,3.81,7.35,7.35,0,0,0,2.43,9.28c3.07,2.4,6.7,3.51,10.43,4.31,2,.44,4.05.73,6.06,1.22-1.09,0-2.18.05-3.27,0-6.8-.35-13.54-1.05-20-3.36a32.24,32.24,0,0,1-4.24-1.92,11.86,11.86,0,0,1-6-6.95Z" transform="translate(-190.24 -352.24)" fill="#02aded"/><path d="M422.56,384.64h-1.84v-5.55l-.3,0q-.85,2.7-1.72,5.41h-1.51l-1.53-5.56c-.12,2.11-.22,3.89-.32,5.72h-1.72c.16-2.67.33-5.32.5-8h2.53l1.45,5.16c.54-1.78,1.06-3.5,1.58-5.2h2.42c.14,1.61.27,3.18.4,4.76l.06,1.17Z" transform="translate(-190.24 -352.24)" fill="#fff"/><path d="M358,441a5.09,5.09,0,0,0,.22-1.07c0-3.27,0-6.53,0-9.89,2,0,3.86-.07,5.76,0a2.72,2.72,0,0,1,2.82,2.55,2.82,2.82,0,0,1-2.1,3.07l-.38.13c1.07,1.71,2.12,3.38,3.16,5.06l-1.4,0c-.69-1-1.43-2-2-3.05a3.58,3.58,0,0,0-4.37-1.75V441Zm1.59-6.2c1.39,0,2.71.06,4,0a1.87,1.87,0,0,0,1.82-1.74,1.78,1.78,0,0,0-1.66-1.86c-1.38-.11-2.76,0-4.17,0Z" transform="translate(-190.24 -352.24)" fill="#fff"/><path d="M301.84,441v-11c2,0,3.94-.08,5.84,0a2.65,2.65,0,0,1,2.75,2.46c.16,1.67-.49,2.6-2.23,3.18a1.54,1.54,0,0,0-.28.13l3.52,5.17h-1.92c-.65-1.1-1.24-2.24-1.95-3.31-1.16-1.73-2.14-2.05-4.29-1.54V441Zm1.43-6.2c1.39,0,2.7.06,4,0a1.83,1.83,0,0,0,1.81-1.85,1.8,1.8,0,0,0-1.75-1.77c-1.33-.09-2.68,0-4.06,0Z" transform="translate(-190.24 -352.24)" fill="#fff"/><path d="M326.8,441a7.93,7.93,0,0,0-.71-.59,3.34,3.34,0,0,1-1.67-2.92l1.12-.12a3.54,3.54,0,0,0,4.8,2.22,1.76,1.76,0,0,0,1.31-1.68,1.56,1.56,0,0,0-1.27-1.53c-1.1-.35-2.22-.61-3.32-1-1.58-.5-2.4-1.53-2.29-2.81a2.8,2.8,0,0,1,2.67-2.61,8.74,8.74,0,0,1,3.26.28,2.59,2.59,0,0,1,1.87,2.69H331.4a2.92,2.92,0,0,0-4.06-1.76,2.4,2.4,0,0,0-1.23,1.42c-.19.74.44,1.24,1.14,1.45,1.19.35,2.4.59,3.56,1,1.85.65,2.66,2.25,1.9,3.85a7.1,7.1,0,0,1-1.41,1.56,8.38,8.38,0,0,1-.66.52Z" transform="translate(-190.24 -352.24)" fill="#fff"/><path d="M382,441V430.12h1.39v4.34h5.79v-4.33l1.46-.09v11H389.2v-5.22h-5.76V441Z" transform="translate(-190.24 -352.24)" fill="#fff"/><path d="M345.76,441q2.13-5.46,4.28-10.94h1.48L356.08,441H354.4c-.4-1.13-.81-2.26-1.2-3.36h-4.82l-.94,3.36Zm5.17-9.34h-.28l-1.72,4.76h3.76C352.08,434.81,351.51,433.26,350.93,431.7Z" transform="translate(-190.24 -352.24)" fill="#fff"/><path d="M372.88,441a1.27,1.27,0,0,0,0-.2c-3.15-.85-3.92-5.78-2.56-8.4a4.73,4.73,0,0,1,4.78-2.55,4,4,0,0,1,3.93,3l-1.21.32c-1.25-2.09-2.3-2.61-4.18-2.1s-3,2.87-2.47,5.7a3.45,3.45,0,0,0,4,3c1.48-.2,2.26-1.21,2.71-2.7l1.27.33a4.3,4.3,0,0,1-2.08,3,5,5,0,0,0-.61.53Z" transform="translate(-190.24 -352.24)" fill="#fff"/><path d="M344,440.93l.12.11h-8.16a.32.32,0,0,0,.12-.11Z" transform="translate(-190.24 -352.24)" fill="#fff"/><path d="M365.92,441a.2.2,0,0,1,.17-.11l1.4,0,.35.13Z" transform="translate(-190.24 -352.24)" fill="#fff"/><path d="M422.56,382.48l-.06-1.17.06,0Z" transform="translate(-190.24 -352.24)" fill="#02aded"/><path d="M291.87,417.27l-.73,4h-5.39L294,374.5h5.81c-.94,5.4-1.88,10.76-2.82,16.12l.18.14c.31-.28.62-.56.94-.83a13.21,13.21,0,0,1,12.54-2.85,10,10,0,0,1,7.65,8.88c1.13,8.47-.89,16.06-7.41,22a14.75,14.75,0,0,1-12.7,3.95,8.21,8.21,0,0,1-5.73-3.75Zm20.76-17.15c0-.56,0-1.12,0-1.68-.47-5.72-5.5-8.66-10.7-6.22a12.21,12.21,0,0,0-5.83,5.8,24.12,24.12,0,0,0-2.37,12.78,6.85,6.85,0,0,0,7.24,6.46c3.66-.12,6.29-2.15,8.28-5C311.77,408.63,312.46,404.43,312.63,400.12Z" transform="translate(-190.24 -352.24)" fill="#fff"/><path d="M376.46,399.66c.1-1.29.25-2.56.29-3.82a3.63,3.63,0,0,0-2.39-3.55,12.65,12.65,0,0,0-6.09-.85c-4.26.18-6.95,2.45-8.48,6.42l-5.57-.78c1.37-3.69,3.44-6.69,7-8.38a23.36,23.36,0,0,1,16-1.39c4.35,1.09,6.18,4,5.51,8.43-.79,5.21-1.78,10.38-2.56,15.59-.36,2.44-.48,4.91-.6,7.37a11.93,11.93,0,0,0,.49,2.54h-6.05c-.15-1.21-.31-2.49-.48-3.89-.51.33-1,.64-1.48,1a20.19,20.19,0,0,1-13,3.72,15.53,15.53,0,0,1-2.26-.3c-5.07-1.1-7.5-5.07-6.17-10.15a11.49,11.49,0,0,1,8.11-8.41,78.93,78.93,0,0,1,9-1.73l7.4-1.4A12.94,12.94,0,0,0,376.46,399.66Zm-1.21,4.87c-1.39.34-2.76.74-4.17,1-3.05.59-6.13,1-9.17,1.68a6.2,6.2,0,0,0-5,4.21,4.18,4.18,0,0,0,2.92,5.73c5,1.38,12.09-1.15,14.17-6.81a50.92,50.92,0,0,0,1.37-5.67l0-.28Z" transform="translate(-190.24 -352.24)" fill="#fff"/><path d="M230.65,408.92c.29-5.53,1.43-10.74,4.81-15.22a18.6,18.6,0,0,1,19.16-6.58,11.22,11.22,0,0,1,8.66,10.54c.49,6.89-.9,13.5-5.85,18.64A17.79,17.79,0,0,1,239,421.37a11.1,11.1,0,0,1-8.2-10.11C230.74,410.46,230.7,409.67,230.65,408.92Zm6.16-.83c0,.64-.05,1.28,0,1.92a7.61,7.61,0,0,0,7.87,7.27,10.62,10.62,0,0,0,9-4.79,20.07,20.07,0,0,0,3.41-14.58,7.43,7.43,0,0,0-7.69-6.5c-4.69,0-8,2.45-10.2,6.43A21.21,21.21,0,0,0,236.81,408.09Z" transform="translate(-190.24 -352.24)" fill="#fff"/><path d="M347.49,416.15v5.08c-2.75.55-5.46.89-8.16,0a4.13,4.13,0,0,1-3.09-4.45c.26-3,.74-6,1.24-9,.86-5.2,1.82-10.38,2.74-15.57a1.43,1.43,0,0,0-.06-.31h-4.08c.27-1.58.52-3,.78-4.58h4.2c.45-2.53.88-5,1.35-7.45a1.68,1.68,0,0,1,.54-1.09c1.92-1.12,3.89-2.15,6-3.3-.7,4-1.37,7.86-2.07,11.81h5.75l-.78,4.59h-5.78c-.62,3.52-1.23,7-1.83,10.42-.64,3.65-1.31,7.3-1.86,11-.35,2.27.44,3.07,2.77,3C345.89,416.3,346.65,416.21,347.49,416.15Z" transform="translate(-190.24 -352.24)" fill="#fff"/><path d="M391.62,421.29H385.8q4.14-23.46,8.25-46.8h5.82C397.11,390.13,394.37,405.68,391.62,421.29Z" transform="translate(-190.24 -352.24)" fill="#fff"/><path d="M289.51,388.51l-2.88,5.28c-.22-.1-.43-.18-.62-.28a6.74,6.74,0,0,0-9.46,3c-1.63,3-2.23,6.28-2.8,9.59-.87,5.06-1.78,10.12-2.68,15.21h-5.81c2-11.33,4-22.58,6-33.89h5.22l-.79,4.72c.95-1.07,1.73-2.05,2.61-2.94C281.45,386,285.76,385.69,289.51,388.51Z" transform="translate(-190.24 -352.24)" fill="#fff"/><path d="M326.67,421.27h-5.82c2-11.33,4-22.6,6-33.91h5.82C330.65,398.69,328.67,409.94,326.67,421.27Z" transform="translate(-190.24 -352.24)" fill="#fff"/><path d="M344,440.93H336V430.12h7.69v1.12H337.4v3.36h5.87l.14,1.27h-6v3.74h6.68Z" transform="translate(-190.24 -352.24)" fill="#fff"/><path d="M315.19,435.88v3.77h6.61v1.14h-7.95V430.13h7.62v1.08h-6.22v3.45h5.91v1.22Z" transform="translate(-190.24 -352.24)" fill="#fff"/><path d="M329.11,374.47h5.8c-.39,2.23-.77,4.4-1.14,6.56H328C328.34,378.83,328.72,376.69,329.11,374.47Z" transform="translate(-190.24 -352.24)" fill="#fff"/><path d="M408.23,378.12h-2.11V376.6h6.08v1.47h-2.05v6.56h-1.92Z" transform="translate(-190.24 -352.24)" fill="#fff"/><path d="M367.37,378.41l-.13.14.15-.12Z" transform="translate(-190.24 -352.24)" fill="#02aded"/></svg>