<?xml version="1.0" encoding="utf-8"?>
<!-- Generator: Adobe Illustrator 22.1.0, SVG Export Plug-In . SVG Version: 6.00 Build 0)  -->
<!DOCTYPE svg PUBLIC "-//W3C//DTD SVG 1.1//EN" "http://www.w3.org/Graphics/SVG/1.1/DTD/svg11.dtd">
<svg version="1.1" id="Layer_1" xmlns="http://www.w3.org/2000/svg" xmlns:xlink="http://www.w3.org/1999/xlink" x="0px" y="0px"
	 viewBox="0 0 319.6 82.6" style="enable-background:new 0 0 319.6 82.6;" xml:space="preserve">
<style type="text/css">
	.st0{fill:#FFFFFF;}
	.st1{fill:#005DAA;}
</style>
<g>
	<g>
		<g>
			<g>
				<g>
					<g>
						<g>
							<path class="st0" d="M135.8,52.4v-4.7h7.6c0.3,0,0.5-0.2,0.5-0.5v-2.6c0-0.3-0.2-0.5-0.5-0.5h-7.6v-4.5h8.7
								c0.3,0,0.5-0.2,0.5-0.5v-2.6c0-0.3-0.2-0.5-0.5-0.5h-12.4c-0.2,0-0.4,0.2-0.4,0.4v19.2c0,0.2,0.2,0.4,0.4,0.4h10.7
								c0.6,0,1.1-0.3,1.4-0.9l1.2-2.7H135.8z"/>
							<path class="st0" d="M113.5,35.9c0.9,1,1.7,2.8,1.7,2.8c0.3,0.6,0.9,0.8,1.6,0.8l3.1,0v16.1c0,0.2,0.2,0.4,0.4,0.4h3.4
								c0.2,0,0.4-0.2,0.4-0.4V39.6h4.3c0.2,0,0.4-0.2,0.4-0.4v-2.8c0-0.2-0.2-0.4-0.4-0.4H113.5z"/>
							<path class="st0" d="M107.6,43.2l-1.1-0.5c-1.9-0.8-2.8-1.4-2.8-2.8c0-1.1,0.8-1.9,2.2-1.9c1.3,0,2.1,0.6,2.9,1.9l0.1,0.1
								c0.1,0.2,0.4,0.3,0.6,0.2l0,0l2.9-1.3c0.2-0.1,0.4-0.4,0.2-0.7c0,0-0.2-0.5-0.2-0.5c0,0,0-0.1-0.1-0.1l0-0.1
								c-0.1-0.2-0.2-0.3-0.3-0.4c0,0,0,0,0,0h0c-1.5-2.3-3.5-3.2-6.2-3.2c-4.1,0-6.6,2.6-6.6,6c0,3.7,2.2,5.4,5.4,6.8l1.1,0.5
								c2.1,0.9,3.3,1.5,3.3,3c0,1.3-1.2,2.2-3.1,2.2c-2,0-3.3-1-4.2-2.4c-0.1-0.2-0.4-0.3-0.6-0.2l0,0l-3,1.4
								c-0.3,0.1-0.4,0.4-0.2,0.7l0.4,0.6l0,0c1.4,2.2,4,3.9,7.8,3.9c4.3,0,7.5-2.2,7.5-6.3C113.7,46.6,111.5,44.9,107.6,43.2z"/>
							<path class="st0" d="M178.1,45.9l9.8-10.1c0.2-0.2,0.4,0,0.4,0.2v19.6c0,0.2-0.2,0.4-0.4,0.4h-3.2c-0.2,0-0.4-0.2-0.4-0.4
								V45.2l-6,5.9c-0.2,0.2-0.4,0.2-0.6,0l-6-5.9v10.5c0,0.2-0.2,0.4-0.4,0.4h-3.2c-0.2,0-0.4-0.2-0.4-0.4V36
								c0-0.2,0.3-0.3,0.4-0.2L178.1,45.9z"/>
							<path class="st0" d="M156.1,36c-0.1-0.2-0.4-0.2-0.5,0l-8.5,19.6c-0.1,0.2,0.1,0.5,0.3,0.5h3.2c0.2,0,0.3-0.1,0.3-0.2
								l1.6-4.2h6.6l1.7,4.2c0.1,0.1,0.2,0.2,0.3,0.2h3.5c0.3,0,0.4-0.3,0.3-0.5L156.1,36z M153.9,48.1l1.9-4.9l1.9,4.9H153.9z"/>
						</g>
						<g>
							<path class="st0" d="M250.8,35.9h3c0.3,0,0.6,0.3,0.6,0.6v19c0,0.3-0.3,0.6-0.6,0.6h-3c-0.3,0-0.6-0.3-0.6-0.6v-19
								C250.2,36.2,250.5,35.9,250.8,35.9z"/>
							<path class="st0" d="M290.1,35.9h3.3c0.2,0,0.4,0.2,0.4,0.4v16h8.7c0.2,0,0.4,0.2,0.4,0.4v2.8c0,0.2-0.2,0.4-0.4,0.4H290
								c-0.2,0-0.4-0.2-0.4-0.4V36.3C289.6,36.1,289.8,35.9,290.1,35.9z"/>
							<path class="st0" d="M306.3,35.9h12.5c0.2,0,0.4,0.2,0.4,0.4v2.9c0,0.2-0.2,0.4-0.4,0.4H310v4.5h7.7c0.2,0,0.4,0.2,0.4,0.4
								v2.8c0,0.2-0.2,0.4-0.4,0.4H310v4.7h9.2c0.2,0,0.4,0.2,0.4,0.4v2.9c0,0.2-0.2,0.4-0.4,0.4h-12.6c-0.4,0-0.7-0.3-0.7-0.7v-19
								C305.9,36.1,306.1,35.9,306.3,35.9z"/>
							<path class="st0" d="M241.6,36.5v7.6H233v-7.6c0-0.3-0.2-0.5-0.5-0.5h-3.1c-0.3,0-0.5,0.2-0.5,0.5v19c0,0.3,0.2,0.5,0.5,0.5
								h3.1c0.3,0,0.5-0.2,0.5-0.5v-7.8h8.6v7.8c0,0.3,0.2,0.5,0.5,0.5h3.1c0.3,0,0.5-0.2,0.5-0.5v-19c0-0.3-0.2-0.5-0.5-0.5h-3.1
								C241.8,35.9,241.6,36.2,241.6,36.5z"/>
							<path class="st0" d="M266.3,44l-1-0.4c-1.8-0.8-2.5-1.3-2.5-2.5c0-1,0.8-1.8,2-1.8c1.2,0,2,0.5,2.7,1.8l0.1,0.1
								c0.1,0.2,0.4,0.3,0.7,0.2c0.5-0.3,1.3-0.8,2.4-1.6c0.2-0.1,0.3-0.4,0.2-0.6c0,0-0.1-0.1-0.1-0.2l0,0
								c-0.1-0.1-0.2-0.3-0.2-0.4c0,0,0,0,0,0h0c-1.3-2.1-3.2-2.9-5.6-2.9c-3.7,0-6.1,2.4-6.1,5.5c0,3.4,2,5,5,6.2l1,0.4
								c1.9,0.8,3,1.3,3,2.7c0,1.2-1.1,2-2.8,2c-1.9,0-3-0.9-3.8-2.1c-0.1-0.2-0.4-0.3-0.6-0.1l-2.6,1.5c-0.2,0.1-0.3,0.4-0.2,0.7
								c1.3,2.2,3.7,3.8,7.3,3.8c3.9,0,6.9-2,6.9-5.8C271.8,47.1,269.8,45.5,266.3,44z"/>
							<path class="st0" d="M271.4,35.9c0.6,0.6,1.1,1.2,1.6,2h0c0,0,0,0,0,0.1c0.1,0.2,0.4,0.7,0.4,0.7c0.3,0.6,0.9,0.9,1.6,0.9
								l2.8,0v16.1c0,0.2,0.2,0.4,0.4,0.4h3.4c0.2,0,0.4-0.2,0.4-0.4V39.6h4.3c0.2,0,0.4-0.2,0.4-0.4v-2.8c0-0.2-0.2-0.4-0.4-0.4
								H271.4z"/>
							<path class="st0" d="M221.8,34.8l-4.2,11.6L212,34.5c-0.1-0.1-0.2-0.2-0.3-0.2c-0.1,0-0.3,0.1-0.3,0.2l-5.6,11.8l-1-2.7
								c0-0.1-0.1-0.2-0.1-0.3l-3.1-8.6c-0.1-0.2-0.2-0.3-0.4-0.3h-4c-0.3,0-0.5,0.3-0.4,0.5l7.9,21.5c0,0.1,0.2,0.2,0.3,0.2h0
								c0.1,0,0.2-0.1,0.3-0.2l6.3-13l6.1,13c0.1,0.1,0.2,0.2,0.3,0.2c0.1,0,0.3-0.1,0.3-0.2l7.7-21.5c0.1-0.3-0.1-0.5-0.4-0.5h-3.6
								C222,34.5,221.9,34.6,221.8,34.8z"/>
						</g>
					</g>
				</g>
			</g>
			<g>
				<g>
					<g>
						<g>
							<path class="st0" d="M68.4,57.7c-0.7,0-1.4-0.1-2.2-0.2L66,60.4c1.3,0.2,2.2,0.2,3.1,0.2L68.4,57.7z"/>
							<path class="st0" d="M71.3,57.1l0.7,2.8c3-1.4,4.7-4.7,2.8-9C74.9,52.8,74.1,55.9,71.3,57.1z"/>
							<path class="st0" d="M73.6,66.1l0.9,3.5c2.9-2.3,3.8-6.5,1.7-11.8C76.8,61.9,75.7,64.6,73.6,66.1z"/>
							<path class="st0" d="M70.6,67.3c-1.5,0.3-3.2,0.2-5.1-0.3l-0.7,4c2.4,0.5,4.9,0.5,6.7,0L70.6,67.3z"/>
							<path class="st0" d="M21.3,31.3c-7.8-0.2-7,9.5-7,9.5C5.4,42,7.6,51.4,12,53.3c-4.1,4.9,1.3,8.4,4.6,8.3c0,2.9,0,2.9,0,2.9
								c-8.3-0.4-10.3-7-7.4-10.3C2.8,49.7,4.8,40,12.5,39.5C12.6,30.1,19.3,30.5,21.3,31.3z"/>
							<path class="st0" d="M4,48.1C0,51.3,2,56.5,5,57.8C3.5,60,3.5,60,3.5,60C-2.1,56.6-0.3,49.3,4,48.1z"/>
							<path class="st0" d="M6.7,60c-0.6,6.4,6,11.4,11.7,9.1c1.2,5.4,5.1,4.3,5.1,4.3l0.9,2.1c-5.8,1.3-7.4-3.9-7.4-3.9
								C12.1,72.9,4.4,68.2,6.7,60z"/>
							<path class="st0" d="M21.8,66.7c3.8,2.4,6.2,0.6,7.5-2.2c1.8,1.4,1.8,1.4,1.8,1.4C28.2,71.1,23.2,69,21.8,66.7z"/>
							<path class="st0" d="M24.1,71.8c4.6,3,7.6,0.8,9.3-2.8c2.2,1.8,2.2,1.8,2.2,1.8C32,77.2,25.8,74.6,24.1,71.8z"/>
							<path class="st0" d="M2.5,61.1c-2.5,5,2,6.8,2.9,6.5c0.1,8,8,6.3,8,6.3l-0.1,2.6C5.7,78,2.7,72.1,3.4,69.4
								C-1.4,67.5,0.3,61.8,2.5,61.1z"/>
							<path class="st0" d="M50.9,13.2c3.4-1.9,5.6,0.6,5.8,3c1-0.1,2.4-0.2,2.4-0.2C57.9,9.2,51.8,11.7,50.9,13.2z"/>
							<path class="st0" d="M61.6,13.1c6-1.1,6.2,3.9,5.8,6c1.5,0.4,1.2,0.3,2.4,0.7C70.9,11.7,63.8,12,61.6,13.1z"/>
							<path class="st0" d="M58.7,17.4c4.5-1.6,7.9,1.4,7.6,4.8c5.7,1.1,2.8,8,2.8,8L66.5,29c2.2-5.8-1.9-5.4-1.9-5.4
								C65.3,18,59.9,17.2,58.7,17.4z"/>
							<path class="st0" d="M70.4,20.3c4.7,1,5,4.5,2.7,8.2c2.2,0.9,2.9,1.2,2.9,1.2C80.2,21.6,73.3,19.3,70.4,20.3z"/>
							<path class="st0" d="M80.1,34.1c5.8,2.1,5.2,10,0.2,13.2c1.4,3,1.4,3,1.4,3C89.7,45.3,87.7,34.5,80.1,34.1z"/>
							<path class="st0" d="M72.4,33.5c9.4,1.3,7.4,12.5,0.9,14.5l-0.2-3.9C78.4,41.7,76.5,34.9,72.4,33.5z"/>
							<path class="st0" d="M84.5,41.7C90,43.4,87.9,48,86,50l1.5,2.1C93.8,43.7,86.4,41.7,84.5,41.7z"/>
							<path class="st0" d="M84.7,50.8c5.4,5.6,1.5,13.7-4.2,15.1c-0.3-1.8-0.6-3.9-0.6-3.9C86.5,59.8,86.2,53.2,84.7,50.8z"/>
							<path class="st0" d="M85.3,59.2c1.9,5.9-0.8,8.9-4.8,9.5l0.3,3.4C89.6,70,88.2,61.7,85.3,59.2z"/>
							<path class="st0" d="M90.3,51.6c2.7,3,0.8,6.5-1.9,7.9c0.3,0.5,1.3,2.1,1.3,2.1C95,58.3,93.3,52.6,90.3,51.6z"/>
							<path class="st0" d="M78,25.5c4.7,1,4.7,4.8,3,7.1c0,0,1.6,0.6,2.6,1C86.8,26.5,80.2,25.3,78,25.5z"/>
							<path class="st0" d="M25.8,26.9c-3.1-1.1-3.9,1.1-4.1,2.9l-2.2-0.2C20.3,24.8,24.5,25.1,25.8,26.9z"/>
							<g>
								<path class="st0" d="M45.6,49.8l8.6-28.3l-2.5-4.3l-6.7,32.7C45.3,49.8,45.4,49.8,45.6,49.8z"/>
								<path class="st0" d="M53.1,50.2l11.2-9.9l-0.1-3.6L52.6,50C52.8,50.1,53,50.1,53.1,50.2z"/>
								<path class="st0" d="M50.9,49.7l12.9-16.9l-0.7-4.2l-12.7,21C50.6,49.7,50.7,49.7,50.9,49.7z"/>
								<path class="st0" d="M36.6,52.9L18.3,36.7l-0.6,3.7l18.6,12.7C36.4,53.1,36.5,53,36.6,52.9z"/>
								<path class="st0" d="M48.2,49.5l12.3-24.5l-2-4.9L47.7,49.6C47.9,49.6,48.1,49.6,48.2,49.5z"/>
								<path class="st0" d="M55.3,51l4.3-2l0.7-2.3l-5.5,4.1C55,50.8,55.2,50.9,55.3,51z"/>
								<path class="st0" d="M31.8,57.9l-10.6,0.6l2,2.1l8.4-2.3C31.6,58.1,31.7,58,31.8,57.9z"/>
								<path class="st0" d="M33,56.1l-17.2-4.4l1.8,3.6l15.1,1.1C32.8,56.3,32.9,56.2,33,56.1z"/>
								<path class="st0" d="M34.7,54.3l-20-10.8l0.3,3.6l19.4,7.4C34.5,54.5,34.6,54.4,34.7,54.3z"/>
							</g>
						</g>
						<path class="st1" d="M67.8,47c1.2-0.3,2-1.4,2-2.8c0-1.3-0.7-2.3-1.8-2.7c0,0,0,0,0,0c0,0-0.1,0-0.1,0c-2.2-0.7-6,1-7.1,9.3
							C59.5,60.2,59.8,65,56,67c-0.3-0.3-0.7-0.9-1.3-1.2c2.3-2.4,3.4-5.4,2.9-8.4c0.2-0.5,0.5-1.2,0.7-1.9c0.1-0.6,0-1.1-0.4-1.6
							c-2.7-2.9-8.3-4.1-14.1-2.8l0.3-2l0-0.2c-0.5,0.1-1,0.2-1.5,0.4c-2.1,0.6-4,1.4-5.6,2.5l1.3,1.3c-4.1,2.2-7,5.4-7.5,8.7
							c-0.1,0.5,0,1,0.4,1.4c0.4,0.5,1.1,1,1.8,1.2c1,2.6,3.3,4.4,6.2,5.4c0,0.1,0,0.1,0,0.2c0,2.6,1.8,4.6,4.1,4.6l0,0l1.6,8H45
							h1.5h1.2h2.4h0.9h1h2.4h1.7h0.5l-2-8.4c0.6-0.3,1.1-0.8,1.4-1.3c0,0,0,0,0,0c0.1-0.1,0.1-0.2,0.2-0.3c0-0.1,0.1-0.1,0.1-0.2
							c0-0.1,0.1-0.1,0.1-0.2c0-0.1,0.1-0.2,0.1-0.3c0,0,0,0,0,0c0.1-0.2,0.2-0.5,0.2-0.7c6.3-1.4,6.5-11.1,6.7-15.3
							c0.2-4,0.3-6.9,1.7-9.5c0.4,0.4,0.9,0.7,1.5,0.8L75,82.6h1.9L67.8,47z"/>
						<path class="st0" d="M53.6,65.3L52.1,65c2.1-3.6,1.8-7.6,0.7-10.4c1.3,0.3,2.4,0.8,3.3,1.4C57,59.7,55.8,62.9,53.6,65.3z"/>
						<path class="st0" d="M49.5,54.2c0.6,0,1.3,0.1,1.9,0.2c1.5,3,1.4,7-0.5,10.5l-1.4-0.2C51,61.1,51.3,57.4,49.5,54.2z"/>
						<path class="st0" d="M39.3,68.4c-1.7-0.1-5.3-2.3-5.8-6c0.2-0.5,0.5-1,0.9-1.5c0.9,4.2,3.3,5.8,5.5,6.4
							C39.8,67.4,39.5,67.9,39.3,68.4z"/>
						<path class="st0" d="M32.2,62.7L32,62.5c-0.3-0.2-0.4-0.6-0.3-1c1.6-4.6,6.3-7.8,11.2-9.1c1.9-0.5,3.8-0.8,5.6-0.8
							c3.2,0,6,0.8,7.9,2.3c0.2,0.2,0.5,0.4,0.7,0.6c0.1,0.1,0.2,0.3,0.1,0.5l-0.1,0.5c-1.9-1.7-5-2.6-8.4-2.6
							c-1.8,0-3.7,0.3-5.6,0.8C37.7,55.2,33.4,58.8,32.2,62.7z"/>
						<path class="st0" d="M41.9,72.1c-0.1,0-0.2,0-0.3,0c0.8-0.2,1.4-1.1,1.4-2.2c0-1.1-0.6-2-1.4-2.2c0.1,0,0.2,0,0.3,0
							c0,0,0.1,0,0.1,0c1.2,0,2,1,2,2.2C44,71.1,43.1,72.1,41.9,72.1C41.9,72.1,41.9,72.1,41.9,72.1z"/>
						<path class="st0" d="M43.1,73.8c-0.2,0-0.5,0-0.7-0.1c0,0,0,0,0,0c1.8,0,3.3-1.7,3.3-3.8c0-2.1-1.5-3.8-3.3-3.8c0,0,0,0,0,0
							c0.2-0.1,0.4-0.1,0.7-0.1c0,0,0,0,0.1,0c2,0,3.6,1.7,3.6,3.9C46.8,72.1,45.2,73.8,43.1,73.8C43.2,73.8,43.1,73.8,43.1,73.8z"
							/>
						<polygon class="st0" points="45.9,82.3 44.3,74.5 45.4,74.5 47.1,82.3 						"/>
						<path class="st0" d="M45.8,65.5l7.3,0.7c1.3,0.3,2.4,1.4,2.7,2.8l-7.4-0.3C48.1,67.2,47.1,66,45.8,65.5z"/>
						<polygon class="st0" points="51.2,82.3 49.5,74.4 50.4,74.4 52.1,82.3 						"/>
						<polygon class="st0" points="55.6,82.3 53.2,82.3 51.4,74.3 53.7,74.2 						"/>
						<path class="st0" d="M55.7,71.5l-7.4,0c0.1-0.4,0.2-0.8,0.2-1.2l7.3,0C55.9,70.7,55.8,71.1,55.7,71.5z"/>
						<path class="st0" d="M64.8,45.6c-1.3,2.2-1.8,4.3-1.9,10.5c-0.1,7.6-1.5,13-5.8,14.1c0,0,0-0.1,0-0.1c0-0.4,0-0.8-0.1-1.1
							c3.2-1.1,4.9-5.7,5.2-12.1c0.1-3.1,0.2-8.4,2.3-11.7c0.1-0.1,0.1-0.2,0.2-0.3C64.7,45.1,64.8,45.3,64.8,45.6
							C64.8,45.6,64.8,45.6,64.8,45.6z"/>
						<path class="st0" d="M66.8,44.8c-0.4,0-0.7-0.4-0.7-0.9c0-0.5,0.3-0.9,0.7-0.9c0.4,0,0.7,0.4,0.7,0.9
							C67.5,44.4,67.2,44.8,66.8,44.8z"/>
						<path class="st1" d="M47.8,14.7c0.6-2.8,0.3-5.9-2.8-8.6c-4.3-3.7-12.2-3.7-17.4,0.7c-5.1,4.3-3.9,10.1-1.9,10.7l4,27.4
							l6.5,6.3c1.8-1.2,4-2.3,6.4-2.9c0.6-0.2,1.2-0.3,1.8-0.4L49,21.4L47.8,14.7z"/>
						<path class="st0" d="M31.8,45.1l-4.9-32c0.3-0.5,0.6-0.9,1-1.4l5.4,34.8L31.8,45.1z"/>
						<path class="st0" d="M35,48.3l-5.9-38c0.3-0.2,0.5-0.4,0.8-0.6l6.2,39.7L35,48.3z"/>
						<path class="st0" d="M43.6,45.6L36.9,7.4c0.3,0,0.6,0,0.9,0l6.3,35.5L43.6,45.6z"/>
						<path class="st0" d="M44.9,38.5l-5.5-31c0.4,0,0.8,0.1,1.2,0.2l4.9,27.5L44.9,38.5z"/>
						<path class="st0" d="M46.3,30.6l-4-22.4c0.6,0.2,1.2,0.6,1.8,0.9c0.2,0.1,0.3,0.2,0.5,0.3c0.1,0.1,0.2,0.2,0.3,0.2l2.7,13.6
							L46.3,30.6z"/>
						<path class="st1" d="M25.1,8.4c-0.3-1.1,1.9-4.8,6.2-6.6c0-0.7,0.7-1.4,1.7-1.7c1-0.3,2.1,0.1,2.4,0.8
							c4.8-0.3,8.6,2.2,8.4,3.4c-4.4-2.9-11.6-2.6-16.4,1.4C26.4,6.6,25.6,7.5,25.1,8.4z"/>
					</g>
				</g>
				<g>
					<rect x="17.5" y="81.6" class="st0" width="66" height="1.1"/>
				</g>
			</g>
		</g>
	</g>
</g>
</svg>
